<?xml version="1.0" standalone="no"?>
<!DOCTYPE svg PUBLIC "-//W3C//DTD SVG 1.1//EN" "http://www.w3.org/Graphics/SVG/1.1/DTD/svg11.dtd" >
<svg xmlns="http://www.w3.org/2000/svg">
<metadata></metadata>
<defs>
<font id="karbonregular_italic" horiz-adv-x="878" >
<font-face units-per-em="2048" ascent="1393" descent="-655" />
<missing-glyph horiz-adv-x="389" />
<glyph unicode="&#xfb01;" horiz-adv-x="1015" d="M111 0l139 788h-139l18 105h139l41 233q24 140 110.5 213.5t209.5 73.5q145 0 235 -90l-22 -115q-96 99 -213 99q-82 0 -132 -44t-69 -151l-39 -219h555l-158 -893h-120l139 788h-434l-140 -788h-120z" />
<glyph unicode="&#xfb02;" horiz-adv-x="1015" d="M111 0l139 788h-139l18 105h139l41 235q23 135 102 210t199 75q100 0 158 -43l-20 -108q-51 43 -138 43q-74 0 -118.5 -43t-63.5 -148l-39 -221h246l-19 -105h-245l-140 -788h-120zM666 0l245 1393h121l-246 -1393h-120z" />
<glyph unicode="&#xfb03;" horiz-adv-x="1570" d="M111 0l139 788h-139l18 105h139l37 211q23 135 102 210t199 75q100 0 158 -43l-21 -109q-51 43 -137 43q-74 0 -118.5 -43t-63.5 -147l-35 -197h434l41 233q24 140 110.5 213.5t209.5 73.5q145 0 235 -90l-22 -115q-96 99 -213 99q-82 0 -132 -44t-69 -151l-39 -219h555 l-158 -893h-120l139 788h-434l-140 -788h-120l139 788h-434l-140 -788h-120z" />
<glyph unicode="&#xfb04;" horiz-adv-x="1570" d="M111 0l139 788h-139l18 105h139l37 211q23 135 102 210t199 75q100 0 158 -43l-21 -109q-51 43 -137 43q-74 0 -118.5 -43t-63.5 -147l-35 -197h434l41 235q23 135 102 210t199 75q100 0 158 -43l-20 -108q-51 43 -138 43q-74 0 -118.5 -43t-63.5 -148l-39 -221h246 l-19 -105h-245l-140 -788h-120l139 788h-434l-140 -788h-120zM1221 0l245 1393h121l-246 -1393h-120z" />
<glyph horiz-adv-x="0" />
<glyph horiz-adv-x="682" />
<glyph unicode=" "  horiz-adv-x="389" />
<glyph unicode="&#x09;" horiz-adv-x="389" />
<glyph unicode="&#xa0;" horiz-adv-x="389" />
<glyph unicode="!" horiz-adv-x="550" d="M129 84q0 41 29.5 70.5t70.5 29.5q42 0 72.5 -29.5t30.5 -70.5t-31 -71.5t-72 -30.5t-70.5 30.5t-29.5 71.5zM211 346l154 871h120l-153 -871h-121z" />
<glyph unicode="&#x22;" horiz-adv-x="622" d="M225 893l74 426h113l-95 -426h-92zM444 893l74 426h113l-94 -426h-93z" />
<glyph unicode="#" horiz-adv-x="1071" d="M61 348l21 107h180l115 303h-176l18 106h197l133 353h119l-133 -353h266l133 353h119l-133 -353h153l-18 -106h-174l-115 -303h170l-21 -107h-190l-131 -348h-119l131 348h-266l-131 -348h-119l131 348h-160zM381 455h266l115 303h-266z" />
<glyph unicode="$" horiz-adv-x="888" d="M41 143l31 119q116 -130 266 -153l84 477q-64 33 -105 59.5t-79 64.5t-56 87.5t-18 113.5q0 134 100 220t262 86h9l28 176h103l-31 -189q135 -31 211 -117l-27 -124q-86 103 -205 137l-77 -443q54 -29 87 -49t69 -50t55.5 -60t32 -73t12.5 -95q0 -146 -104 -236.5 t-267 -95.5l-35 -193h-102l34 199q-87 14 -160 52.5t-118 86.5zM285 911q0 -72 40 -117.5t117 -86.5l72 405q-110 -3 -169.5 -55.5t-59.5 -145.5zM440 104q107 8 169.5 67t62.5 159q0 71 -39 117.5t-117 89.5z" />
<glyph unicode="%" horiz-adv-x="1392" d="M123 934q0 130 90 216.5t209 86.5q115 0 190.5 -73t75.5 -183q0 -130 -90 -216.5t-209 -86.5q-115 0 -190.5 73t-75.5 183zM176 0l944 1217h127l-944 -1217h-127zM238 934q0 -67 41.5 -108.5t109.5 -41.5q79 0 131.5 52t52.5 145q0 67 -41.5 108t-109.5 41 q-79 0 -131.5 -51.5t-52.5 -144.5zM735 236q0 130 90 216.5t209 86.5q115 0 190.5 -73t75.5 -183q0 -130 -90 -216.5t-209 -86.5q-115 0 -190.5 73t-75.5 183zM850 236q0 -67 41.5 -108.5t109.5 -41.5q79 0 132 52t53 145q0 67 -42 108t-110 41q-79 0 -131.5 -51.5 t-52.5 -144.5z" />
<glyph unicode="&#x26;" horiz-adv-x="1130" d="M70 281q0 124 81.5 213t264.5 176l-19 22q-100 129 -100 248q0 130 88.5 213.5t222.5 83.5q128 0 199.5 -66.5t71.5 -177.5q0 -64 -23 -118t-68 -96.5t-91.5 -73.5t-112.5 -64l241 -311q78 129 113 280h113q-38 -206 -158 -366l188 -244h-139l-123 156 q-176 -176 -401 -176q-164 0 -256 86t-92 215zM195 281q0 -85 61.5 -141t161.5 -56q195 0 336 154l-277 352q-159 -77 -220.5 -141t-61.5 -168zM416 940q0 -83 69 -172l39 -49q52 23 88 44.5t72.5 54t55 76.5t18.5 99q0 61 -40.5 102.5t-109.5 41.5q-88 0 -140 -54t-52 -143 z" />
<glyph unicode="'" horiz-adv-x="403" d="M225 893l74 426h117l-94 -426h-97z" />
<glyph unicode="(" horiz-adv-x="657" d="M109 395q0 129 31 254t84 230.5t126 202.5t153 173t169 138h155q-604 -440 -604 -998q0 -211 78.5 -372t220.5 -306h-133q-280 273 -280 678z" />
<glyph unicode=")" horiz-adv-x="657" d="M-104 -283q604 440 604 998q0 211 -78.5 372t-220.5 306h133q280 -273 280 -678q0 -129 -31 -254t-84 -230.5t-126 -202.5t-153 -173t-169 -138h-155z" />
<glyph unicode="*" horiz-adv-x="688" d="M176 1198l43 86l195 -110l35 223l94 -17l-45 -219l223 35l12 -92l-221 -29l102 -198l-84 -41l-96 200l-155 -157l-66 65l162 154z" />
<glyph unicode="+" horiz-adv-x="940" d="M94 545l21 108h334l57 334h108l-57 -334h334l-21 -108h-333l-58 -334h-108l57 334h-334z" />
<glyph unicode="," horiz-adv-x="489" d="M-53 -254q86 77 145.5 186.5t81.5 231.5h145q-23 -124 -103.5 -244t-172.5 -174h-96z" />
<glyph unicode="-" horiz-adv-x="727" d="M156 475l20 111h440l-20 -111h-440z" />
<glyph unicode="." horiz-adv-x="489" d="M96 84q0 41 30 70.5t71 29.5t71.5 -29.5t30.5 -70.5t-30.5 -71.5t-71.5 -30.5t-71 30.5t-30 71.5z" />
<glyph unicode="/" horiz-adv-x="919" d="M-45 -283l936 1676h123l-938 -1676h-121z" />
<glyph unicode="0" horiz-adv-x="1093" d="M115 473q0 209 68 383.5t192 277.5t278 103q99 0 175 -38t122.5 -106t70 -156t23.5 -194q0 -209 -68 -383t-192 -277t-278 -103q-99 0 -175 38t-122.5 105.5t-70 155.5t-23.5 194zM242 475q0 -112 28 -197.5t88.5 -137.5t147.5 -52q120 0 215 90t146 238.5t51 324.5 q0 112 -28 197.5t-89 137.5t-148 52q-120 0 -215 -90t-145.5 -238.5t-50.5 -324.5z" />
<glyph unicode="1" horiz-adv-x="624" d="M145 1051l23 116l391 68l-217 -1235h-123l193 1096z" />
<glyph unicode="2" horiz-adv-x="860" d="M-59 0l18 98q101 70 167.5 117.5t154.5 115t145 119t118.5 116.5t97 121.5t58.5 120.5t23 126q0 85 -52.5 137.5t-144.5 52.5q-98 0 -186.5 -39.5t-185.5 -126.5l24 146q151 133 348 133q159 0 241.5 -77.5t82.5 -225.5q0 -367 -713 -823h594l-18 -111h-772z" />
<glyph unicode="3" horiz-adv-x="811" d="M-29 84l21 121q132 -119 295 -119q135 0 219 68.5t84 181.5q0 100 -73 157.5t-230 79.5l16 86q168 21 265.5 95.5t97.5 203.5q0 75 -46.5 121.5t-134.5 46.5q-96 0 -176.5 -38.5t-161.5 -114.5l25 137q55 57 137.5 92t175.5 35q152 0 231 -74t79 -200q0 -140 -97.5 -233 t-244.5 -114q113 -14 188.5 -89.5t75.5 -190.5q0 -154 -121.5 -255t-308.5 -101q-97 0 -183.5 29t-132.5 75z" />
<glyph unicode="4" horiz-adv-x="1030" d="M27 338l18 104l715 775h143l-135 -775h231l-18 -104h-231l-60 -338h-117l60 338h-606zM178 442h473l111 633z" />
<glyph unicode="5" horiz-adv-x="821" d="M-16 90l22 117q127 -121 289 -121q145 0 228 73.5t83 209.5q0 59 -23 106t-62 78.5t-95.5 55t-117 36.5t-134.5 21l135 551h545l-20 -111h-439l-86 -352q90 -12 163.5 -38.5t133.5 -71t93.5 -114.5t33.5 -161q0 -168 -120 -278.5t-318 -110.5q-95 0 -181 30.5t-130 79.5z " />
<glyph unicode="6" horiz-adv-x="980" d="M82 350q0 68 18.5 132.5t56 126t75.5 110t96 112.5l348 386h149l-358 -398l-131 -121q80 66 201 66q160 0 262 -100t102 -265q0 -177 -119 -298t-307 -121q-184 0 -288.5 102t-104.5 268zM205 348q0 -117 73.5 -192.5t196.5 -75.5q133 0 217 88.5t84 228.5 q0 117 -73.5 192t-196.5 75q-133 0 -217 -88t-84 -228z" />
<glyph unicode="7" horiz-adv-x="804" d="M0 0l741 1106h-641l21 111h776l-20 -111l-740 -1106h-137z" />
<glyph unicode="8" horiz-adv-x="974" d="M74 315q0 142 94 236.5t227 110.5q-71 27 -117.5 91t-46.5 154q0 78 30 142t80 104t111.5 62t127.5 22q142 0 232.5 -78.5t90.5 -220.5q0 -118 -69 -196.5t-170 -100.5q93 -24 157 -104t64 -187q0 -117 -58.5 -203t-150.5 -126.5t-203 -40.5q-175 0 -287 88.5t-112 246.5 zM201 315q0 -105 77 -170t193 -65q118 0 202.5 70t84.5 200q0 110 -77 176t-194 66q-118 0 -202 -71.5t-84 -205.5zM354 909q0 -88 57.5 -145t143.5 -57q95 0 160 62t65 167q0 88 -57 145.5t-143 57.5q-96 0 -161 -62.5t-65 -167.5z" />
<glyph unicode="9" horiz-adv-x="980" d="M137 817q0 177 119 298.5t307 121.5q184 0 288.5 -102.5t104.5 -268.5q0 -68 -18.5 -132.5t-55.5 -126t-75 -110t-96 -112.5l-349 -385h-149l358 397l131 121q-79 -65 -200 -65q-161 0 -263 99.5t-102 264.5zM262 819q0 -117 73.5 -191.5t196.5 -74.5q134 0 218 88 t84 227q0 117 -74 193t-197 76q-133 0 -217 -89t-84 -229z" />
<glyph unicode=":" horiz-adv-x="489" d="M96 84q0 41 30 70.5t71 29.5t71.5 -29.5t30.5 -70.5t-30.5 -71.5t-71.5 -30.5t-71 30.5t-30 71.5zM219 770q0 41 29.5 70.5t70.5 29.5q42 0 72.5 -29.5t30.5 -70.5t-31 -71.5t-72 -30.5t-70.5 30.5t-29.5 71.5z" />
<glyph unicode=";" horiz-adv-x="489" d="M-53 -254q86 77 145.5 186.5t81.5 231.5h145q-23 -124 -103.5 -244t-172.5 -174h-96zM219 770q0 41 29.5 70.5t70.5 29.5q42 0 72.5 -29.5t30.5 -70.5t-31 -71.5t-72 -30.5t-70.5 30.5t-29.5 71.5z" />
<glyph unicode="&#x3c;" horiz-adv-x="673" d="M72 588l4 16l608 336l-22 -141l-392 -209l318 -209l-25 -129z" />
<glyph unicode="=" horiz-adv-x="960" d="M84 422l18 108h777l-19 -108h-776zM127 668l18 108h777l-19 -108h-776z" />
<glyph unicode="&#x3e;" horiz-adv-x="673" d="M45 252l23 141l391 209l-318 209l25 129l491 -336l-4 -16z" />
<glyph unicode="?" horiz-adv-x="825" d="M168 969l27 149q129 119 309 119q154 0 237.5 -80.5t83.5 -218.5q0 -73 -24.5 -135t-62.5 -105t-96 -80.5t-113.5 -61t-125.5 -46.5l-28 -164h-121l43 232q74 23 125.5 43.5t108 52t90.5 66.5t56.5 86t22.5 112q0 84 -55.5 135t-146.5 51q-172 0 -330 -155zM182 84 q0 41 30 70.5t71 29.5t71.5 -29.5t30.5 -70.5t-30.5 -71.5t-71.5 -30.5t-71 30.5t-30 71.5z" />
<glyph unicode="@" horiz-adv-x="1583" d="M102 397q0 161 57.5 304.5t158.5 249t246.5 166.5t314.5 61q292 0 459 -153.5t167 -401.5q0 -141 -53 -253.5t-144 -183t-207.5 -108t-248.5 -37.5q-197 0 -306.5 97t-109.5 265q0 193 125.5 315t333.5 122q80 0 161.5 -21.5t133.5 -54.5l-107 -594q137 41 224.5 156.5 t87.5 296.5q0 204 -139 330t-377 126q-194 0 -346 -89.5t-235 -245t-83 -347.5q0 -129 39.5 -232.5t103 -169t149 -110t172 -62.5t177.5 -18q121 0 233.5 24.5t192.5 64.5l-6 -103q-69 -38 -182.5 -61t-237.5 -23q-108 0 -210.5 21.5t-203 73t-174.5 128.5t-120 197t-46 270 zM545 403q0 -133 87.5 -199.5t223.5 -66.5q54 0 121 13l98 548q-66 39 -184 39q-160 0 -253 -88.5t-93 -245.5z" />
<glyph unicode="A" horiz-adv-x="1150" d="M-41 0l688 1217h166l256 -1217h-129l-70 336h-589l-189 -336h-133zM340 442h510l-135 670z" />
<glyph unicode="B" horiz-adv-x="991" d="M115 14l211 1203q123 20 235 20q174 0 278.5 -79.5t104.5 -231.5q0 -132 -82.5 -213.5t-202.5 -94.5q118 -18 186 -88t68 -184q0 -174 -140 -270t-365 -96q-164 0 -293 34zM254 98q69 -14 156 -14q177 0 277.5 66t100.5 196q0 109 -77.5 162t-239.5 53h-137zM354 670h117 q161 0 254.5 63.5t93.5 192.5q0 98 -72 152.5t-186 54.5q-50 0 -129 -7z" />
<glyph unicode="C" horiz-adv-x="1167" d="M131 543q0 156 50.5 286.5t140 219.5t213.5 138.5t268 49.5q112 0 210.5 -34t168.5 -93l-25 -139q-71 74 -163 112.5t-191 38.5q-253 0 -399 -161t-146 -418q0 -210 123.5 -329.5t314.5 -119.5q220 0 383 127l-26 -149q-68 -43 -163 -67.5t-194 -24.5q-256 0 -410.5 152 t-154.5 411z" />
<glyph unicode="D" horiz-adv-x="1263" d="M117 20l211 1201q125 16 247 16q187 0 328 -60t224 -186.5t83 -308.5q0 -145 -41.5 -263t-113.5 -199t-172 -135.5t-215 -79.5t-244 -25q-198 0 -307 40zM256 109q70 -19 168 -19q115 0 213 20.5t181 66t141.5 113.5t91 168t32.5 224q0 212 -140 328t-368 116 q-67 0 -141 -6z" />
<glyph unicode="E" horiz-adv-x="983" d="M113 0l213 1217h696l-18 -111h-572l-76 -430h535l-21 -113h-534l-80 -452h580l-19 -111h-704z" />
<glyph unicode="F" d="M113 0l213 1217h632l-18 -111h-508l-78 -440h484l-21 -113h-483l-96 -553h-125z" />
<glyph unicode="G" horiz-adv-x="1234" d="M131 543q0 159 52 291t143 219.5t213 135.5t262 48q231 0 383 -111l-25 -145q-57 63 -154 102t-204 39q-252 0 -397.5 -161t-145.5 -418q0 -208 122 -328.5t325 -120.5q144 0 253 49l72 406h127l-86 -483q-166 -86 -366 -86q-180 0 -311.5 74t-197 200t-65.5 289z" />
<glyph unicode="H" horiz-adv-x="1351" d="M113 0l213 1217h125l-95 -541h752l94 541h125l-213 -1217h-125l98 563h-751l-98 -563h-125z" />
<glyph unicode="I" horiz-adv-x="475" d="M113 0l213 1217h125l-213 -1217h-125z" />
<glyph unicode="J" horiz-adv-x="755" d="M-2 88l25 139q41 -66 105 -102.5t138 -36.5q93 0 144 58.5t71 166.5l160 904h125l-164 -928q-27 -152 -115.5 -230.5t-220.5 -78.5q-91 0 -161 30t-107 78z" />
<glyph unicode="K" horiz-adv-x="1060" d="M113 0l213 1217h125l-213 -1217h-125zM352 598v2l656 617h163l-659 -619l516 -598h-158z" />
<glyph unicode="L" horiz-adv-x="866" d="M113 0l213 1217h125l-195 -1106h524l-18 -111h-649z" />
<glyph unicode="M" horiz-adv-x="1597" d="M18 0l418 1217h166l154 -1092l540 1092h168l-8 -1217h-125l15 1081l-539 -1081h-141l-154 1085l-371 -1085h-123z" />
<glyph unicode="N" horiz-adv-x="1323" d="M113 0l213 1217h129l540 -1047l183 1047h120l-213 -1217h-122l-545 1047l-185 -1047h-120z" />
<glyph unicode="O" horiz-adv-x="1394" d="M131 543q0 190 78.5 347t229 252t345.5 95q252 0 404.5 -154.5t152.5 -408.5q0 -190 -78.5 -347t-229 -252t-345.5 -95q-252 0 -404.5 154.5t-152.5 408.5zM258 543q0 -199 116 -324t314 -125q157 0 278 76.5t184.5 208t63.5 295.5q0 198 -116 323t-314 125 q-158 0 -278.5 -76.5t-184 -207.5t-63.5 -295z" />
<glyph unicode="P" horiz-adv-x="931" d="M113 0l215 1219q128 18 225 18q192 0 301 -99t109 -268q0 -109 -40.5 -191t-111.5 -131t-160.5 -73t-195.5 -24q-81 0 -138 10l-79 -461h-125zM336 563q37 -6 119 -6q83 0 150.5 17.5t119.5 53.5t80.5 97.5t28.5 144.5q0 121 -77.5 189.5t-203.5 68.5q-59 0 -117 -4z" />
<glyph unicode="Q" horiz-adv-x="1394" d="M131 543q0 190 78.5 347t229 252t345.5 95q252 0 404.5 -154.5t152.5 -408.5q0 -170 -64 -315.5t-187 -244.5t-285 -126l221 -271h-154l-210 263q-242 9 -386.5 162.5t-144.5 400.5zM258 543q0 -199 116 -324t314 -125q157 0 278 76.5t184.5 208t63.5 295.5 q0 198 -116 323t-314 125q-158 0 -278.5 -76.5t-184 -207.5t-63.5 -295z" />
<glyph unicode="R" horiz-adv-x="1030" d="M113 0l213 1217q99 18 211 18q207 0 319.5 -91.5t112.5 -258.5q0 -81 -28.5 -151t-77.5 -118t-109 -79.5t-127 -44.5l315 -492h-143l-295 471h-185l-81 -471h-125zM338 575h127q171 0 273 76.5t102 233.5q0 123 -85 183t-218 60q-45 0 -103 -4z" />
<glyph unicode="S" horiz-adv-x="888" d="M43 125l31 127q66 -74 150.5 -119t176.5 -45q124 0 195.5 61t71.5 173q0 40 -12 73.5t-29 56.5t-51.5 48.5t-61.5 41t-78 42.5q-64 33 -104.5 61t-77.5 67.5t-54.5 91t-17.5 118.5q0 139 100 227t259 88q96 0 182 -37t135 -94l-27 -131q-57 71 -131.5 112t-158.5 41 q-114 0 -175 -53.5t-61 -152.5q0 -46 14 -82t45.5 -64.5t59 -45.5t78.5 -44q63 -33 99 -54.5t77.5 -54.5t62.5 -66t35.5 -81t14.5 -108q0 -154 -109.5 -248t-278.5 -94q-113 0 -208.5 42t-151.5 103z" />
<glyph unicode="T" horiz-adv-x="970" d="M141 1106l19 111h927l-18 -111h-401l-195 -1106h-125l195 1106h-402z" />
<glyph unicode="U" horiz-adv-x="1214" d="M133 307q0 57 10 113l140 797h125l-140 -797q-8 -44 -8 -101q0 -66 25.5 -112t73.5 -71t106 -35.5t133 -10.5q144 0 274 37l193 1090h125l-207 -1176q-193 -61 -385 -61q-465 0 -465 327z" />
<glyph unicode="V" horiz-adv-x="1130" d="M170 1217h129l207 -1098l612 1098h139l-694 -1217h-151z" />
<glyph unicode="W" horiz-adv-x="1562" d="M170 1217h123l96 -1102l481 1102h125l92 -1102l478 1102h125l-537 -1217h-168l-78 1047l-458 -1047h-168z" />
<glyph unicode="X" horiz-adv-x="1069" d="M-51 0l567 645l-299 572h133l252 -496l420 496h143l-508 -592l330 -625h-133l-285 545l-475 -545h-145z" />
<glyph unicode="Y" horiz-adv-x="1054" d="M170 1217h135l258 -617l475 617h144l-572 -732l-84 -485h-127l86 485z" />
<glyph unicode="Z" horiz-adv-x="1021" d="M10 0l17 104l880 1002h-663l18 111h817l-16 -103l-887 -1003h731l-18 -111h-879z" />
<glyph unicode="[" horiz-adv-x="684" d="M82 -283l295 1676h387l-16 -101h-281l-262 -1478h280l-16 -97h-387z" />
<glyph unicode="\" horiz-adv-x="868" d="M250 1393h108l359 -1676h-109z" />
<glyph unicode="]" horiz-adv-x="684" d="M-14 -283l16 101h281l262 1478h-281l17 97h387l-295 -1676h-387z" />
<glyph unicode="^" horiz-adv-x="851" d="M80 692l412 525h131l227 -525h-123l-180 420l-328 -420h-139z" />
<glyph unicode="_" horiz-adv-x="946" d="M-12 -276l16 98h741l-16 -98h-741z" />
<glyph unicode="`" horiz-adv-x="1024" d="M397 1362h119l109 -311h-109z" />
<glyph unicode="a" d="M61 246q0 73 34.5 126.5t97 84t138.5 45t169 14.5h143l19 109q4 28 4 53q0 60 -43 94.5t-119 34.5q-138 0 -289 -82l21 121q54 31 129 49t147 18q124 0 199 -55.5t75 -161.5q0 -30 -6 -71l-106 -609q-120 -32 -240 -32q-171 0 -272 65t-101 197zM182 246 q0 -83 68.5 -123.5t183.5 -40.5q65 0 133 12l58 322h-125q-55 0 -98.5 -4t-86 -15t-71 -29.5t-45.5 -49t-17 -72.5z" />
<glyph unicode="b" horiz-adv-x="1052" d="M88 70l234 1323h120l-92 -525q88 45 211 45q184 0 297 -111.5t113 -299.5q0 -113 -35.5 -208.5t-102 -165.5t-168.5 -109t-229 -39q-98 0 -196.5 26.5t-151.5 63.5zM219 129q34 -18 95.5 -31.5t121.5 -13.5q202 0 306 111.5t104 306.5q0 130 -81 219.5t-216 89.5 q-122 0 -217 -45z" />
<glyph unicode="c" horiz-adv-x="905" d="M88 389q0 102 27 189t73.5 148t108.5 103.5t132 63t144 20.5q185 0 295 -98l-24 -127q-117 117 -271 117q-73 0 -136.5 -25t-114.5 -74t-80 -130.5t-29 -186.5q0 -127 78 -214t217 -87q82 0 149 18.5t148 75.5l-25 -135q-50 -32 -125 -49.5t-147 -17.5q-190 0 -305 115.5 t-115 293.5z" />
<glyph unicode="d" horiz-adv-x="1046" d="M84 397q0 230 145.5 373t386.5 143q140 0 232 -55l94 535h121l-242 -1368q-140 -45 -274 -45q-213 0 -338 113t-125 304zM209 399q0 -141 90 -229t248 -88q102 0 170 24l112 644q-83 57 -213 57q-190 0 -298.5 -109.5t-108.5 -298.5z" />
<glyph unicode="e" horiz-adv-x="978" d="M88 395q0 220 132 369t341 149q95 0 165 -29.5t108.5 -80.5t56.5 -110.5t18 -127.5q0 -80 -18 -125h-680q-2 -16 -2 -45q0 -143 82 -227t221 -84q88 0 157.5 20.5t157.5 77.5l-24 -127q-116 -75 -291 -75q-195 0 -309.5 116t-114.5 299zM227 543h559q2 14 2 30 q0 104 -58.5 171t-170.5 67q-119 0 -207 -71.5t-125 -196.5z" />
<glyph unicode="f" horiz-adv-x="585" d="M111 0l139 788h-139l18 105h139l41 235q23 135 102.5 210t202.5 75q107 0 170 -47l-20 -109q-57 48 -150 48q-77 0 -121.5 -43t-64.5 -148l-39 -221h246l-19 -105h-245l-140 -788h-120z" />
<glyph unicode="g" horiz-adv-x="1030" d="M72 -301l20 113q43 -29 76 -46.5t90.5 -34t118.5 -16.5q131 0 207.5 63.5t103.5 205.5l10 57q-83 -49 -206 -49q-187 0 -298.5 106t-111.5 297q0 230 147.5 374t399.5 144q93 0 181 -23t148 -59l-153 -872q-60 -348 -428 -348q-94 0 -175.5 25.5t-129.5 62.5zM207 395 q0 -134 77.5 -216.5t207.5 -82.5q113 0 225 51l110 617q-74 43 -198 43q-201 0 -311.5 -110.5t-110.5 -301.5z" />
<glyph unicode="h" horiz-adv-x="1038" d="M80 0l246 1393h120l-96 -539q51 24 126.5 41.5t135.5 17.5q150 0 232 -59.5t82 -179.5q0 -40 -15 -129l-96 -545h-121l97 541q12 61 12 110q0 83 -53.5 116.5t-157.5 33.5q-120 0 -260 -53l-131 -748h-121z" />
<glyph unicode="i" horiz-adv-x="430" d="M80 0l158 893h120l-157 -893h-121zM252 1192q0 38 27.5 65t64.5 27q38 0 65 -27t27 -65q0 -37 -27 -64.5t-65 -27.5q-37 0 -64.5 27.5t-27.5 64.5z" />
<glyph unicode="j" horiz-adv-x="430" d="M-281 -334l23 111q22 -25 63 -42.5t80 -17.5q74 0 117 40.5t61 142.5l175 993h120l-176 -1004q-24 -136 -96 -207t-201 -71q-51 0 -98 16t-68 39zM252 1192q0 38 27.5 65t64.5 27q38 0 65 -27t27 -65q0 -37 -27 -64.5t-65 -27.5q-37 0 -64.5 27.5t-27.5 64.5z" />
<glyph unicode="k" horiz-adv-x="911" d="M80 0l246 1393h120l-245 -1393h-121zM295 487l498 406h178l-520 -412l383 -481h-146z" />
<glyph unicode="l" horiz-adv-x="430" d="M80 0l246 1393h120l-245 -1393h-121z" />
<glyph unicode="m" horiz-adv-x="1544" d="M80 0l147 840q194 73 365 73q157 0 227 -67q192 67 328 67q147 0 216 -57t69 -180q0 -52 -13 -129l-98 -547h-121l98 543q11 56 11 110q0 84 -44 117t-139 33q-143 0 -258 -45q13 -59 13 -88q0 -34 -13 -123l-98 -547h-121l99 543q10 51 10 110q0 84 -44 117t-139 33 q-110 0 -241 -43l-133 -760h-121z" />
<glyph unicode="n" horiz-adv-x="1038" d="M80 0l147 840q216 73 383 73q151 0 233.5 -58.5t82.5 -178.5q0 -52 -13 -129l-98 -547h-121l99 543q10 51 10 110q0 82 -53 115t-152 33q-109 0 -264 -41l-133 -760h-121z" />
<glyph unicode="o" horiz-adv-x="1073" d="M88 397q0 142 58 259t170 187t257 70q187 0 300.5 -114.5t113.5 -302.5q0 -142 -58 -259t-170 -187t-257 -70q-187 0 -300.5 114.5t-113.5 302.5zM213 397q0 -136 79 -225.5t210 -89.5q160 0 260 116t100 298q0 136 -79 225.5t-210 89.5q-160 0 -260 -116t-100 -298z" />
<glyph unicode="p" horiz-adv-x="1060" d="M14 -369l215 1221q146 61 310 61q214 0 327 -113t113 -308q0 -224 -140.5 -368t-383.5 -144q-76 0 -142.5 18.5t-103.5 46.5l-72 -414h-123zM229 152q94 -68 226 -68q192 0 295.5 110.5t103.5 297.5q0 140 -83.5 226.5t-231.5 86.5q-106 0 -203 -33z" />
<glyph unicode="q" horiz-adv-x="1032" d="M84 395q0 231 148 374.5t399 143.5q88 0 176 -24.5t154 -67.5l-209 -1190h-121l67 377q-69 -28 -163 -28q-204 0 -327.5 113t-123.5 302zM209 397q0 -140 88 -227.5t238 -87.5q94 0 182 31l110 645q-77 49 -196 49q-199 0 -310.5 -109.5t-111.5 -300.5z" />
<glyph unicode="r" horiz-adv-x="665" d="M80 0l145 821q148 84 328 84q79 0 152 -18l-21 -115q-61 21 -131 21q-130 0 -221 -48l-131 -745h-121z" />
<glyph unicode="s" horiz-adv-x="745" d="M37 86l22 123q112 -125 254 -125q87 0 138 38t51 120q0 28 -11 51t-36.5 43.5t-46.5 33.5t-60 33q-40 21 -62 34t-55 38t-51 49t-31.5 61t-13.5 79q0 109 82 179t213 70q76 0 142.5 -22.5t107.5 -61.5l-21 -118q-101 98 -229 98q-84 0 -129 -38t-45 -107q0 -28 11 -50.5 t37.5 -43.5t46 -32.5t59.5 -33.5q34 -18 51.5 -28t47.5 -29.5t46 -37.5t34 -43.5t26 -56.5t8 -67q0 -123 -88 -192.5t-222 -69.5q-88 0 -162 30t-114 76z" />
<glyph unicode="t" horiz-adv-x="647" d="M94 788l19 105h137l39 217h121l-39 -217h252l-19 -105h-252l-96 -544q-8 -50 -8 -70q0 -90 96 -90q49 0 91 13t100 40l-21 -112q-95 -45 -186 -45q-201 0 -201 178q0 32 6 73l98 557h-137z" />
<glyph unicode="u" horiz-adv-x="980" d="M92 227q0 44 10 105l99 561h121l-101 -578q-6 -34 -6 -55q0 -94 63 -135t185 -41q110 0 201 22l137 787h121l-154 -873q-174 -40 -315 -40q-169 0 -265 61.5t-96 185.5z" />
<glyph unicode="v" horiz-adv-x="856" d="M90 893h117l143 -778l449 778h129l-527 -893h-137z" />
<glyph unicode="w" horiz-adv-x="1288" d="M90 893h119l76 -782l381 782h114l78 -782l375 782h127l-445 -893h-149l-74 733l-356 -733h-150z" />
<glyph unicode="x" horiz-adv-x="839" d="M-74 0l430 467l-245 426h129l194 -348l305 348h140l-392 -432l267 -461h-129l-215 383l-344 -383h-140z" />
<glyph unicode="y" horiz-adv-x="876" d="M90 893h117l153 -815l459 815h129l-729 -1262h-125l185 314z" />
<glyph unicode="z" horiz-adv-x="835" d="M2 0l18 102l656 686h-510l18 105h654l-19 -102l-655 -687h551l-17 -104h-696z" />
<glyph unicode="{" horiz-adv-x="686" d="M72 508l16 94h62q72 0 127.5 46.5t74.5 148.5l56 311q25 144 98 214.5t209 70.5h55l-16 -97h-49q-83 0 -128.5 -47t-60.5 -141l-55 -315q-20 -109 -84 -168t-135 -70q56 -9 97.5 -53.5t41.5 -126.5q0 -53 -34 -223t-34 -211q0 -67 31.5 -97t97.5 -30h50l-17 -97h-43 q-109 0 -167 51t-58 150q0 58 33.5 232t33.5 221q0 137 -141 137h-61z" />
<glyph unicode="|" horiz-adv-x="526" d="M96 -283l295 1676h109l-295 -1676h-109z" />
<glyph unicode="}" horiz-adv-x="686" d="M-12 -283l16 97h49q83 0 128.5 47t60.5 141l55 315q20 109 84 168t135 70q-56 9 -97.5 53.5t-41.5 126.5q0 53 33.5 223t33.5 211q0 67 -31.5 97t-97.5 30h-49l17 97h43q109 0 167 -51t58 -150q0 -58 -34 -232t-34 -221q0 -137 142 -137h61l-16 -94h-62 q-72 0 -127.5 -46.5t-74.5 -148.5l-56 -311q-25 -144 -98 -214.5t-209 -70.5h-55z" />
<glyph unicode="~" horiz-adv-x="940" d="M143 416q20 112 81.5 173.5t148.5 61.5q39 0 77 -21.5t62 -47t53.5 -47t55.5 -21.5q37 0 66.5 35.5t39.5 97.5h111q-20 -113 -80.5 -174t-147.5 -61q-39 0 -77 21.5t-62 47t-53.5 47t-55.5 21.5q-37 0 -66.5 -35t-41.5 -98h-111z" />
<glyph unicode="&#xa1;" horiz-adv-x="550" d="M92 -324l154 873h121l-154 -873h-121zM246 811q0 41 30.5 71.5t71.5 30.5t71 -30.5t30 -71.5t-30 -70.5t-71 -29.5t-71.5 29.5t-30.5 70.5z" />
<glyph unicode="&#xa2;" horiz-adv-x="905" d="M88 389q0 101 26.5 187t71.5 147t106 104t129.5 64t141.5 22l31 168h102l-30 -174q119 -18 202 -92l-24 -127q-88 88 -199 111l-125 -711q78 2 143 21t142 73l-25 -135q-50 -32 -125 -49.5t-147 -17.5h-6l-31 -175h-102l32 185q-145 32 -229 140.5t-84 258.5zM213 389 q0 -103 54.5 -183.5t152.5 -107.5l125 705q-69 -5 -127.5 -32t-105 -76t-73 -127.5t-26.5 -178.5z" />
<glyph unicode="&#xa3;" horiz-adv-x="927" d="M25 0l18 111q99 59 152 140.5t77 223.5l11 55h-166l18 107h166l39 229q33 187 130 279t239 92q82 0 149 -28t105 -74l-27 -134q-39 57 -97.5 89t-129.5 32q-101 0 -163.5 -64t-86.5 -202l-37 -219h299l-19 -107h-299l-10 -57q-25 -148 -76 -230t-133 -132h637l-18 -111 h-778z" />
<glyph unicode="&#xa4;" horiz-adv-x="1181" d="M111 240l159 145q-57 88 -57 207q0 169 106 291l-124 141l84 74l124 -142q109 72 242 72q144 0 246 -86l166 148l69 -78l-165 -148q59 -89 59 -207q0 -165 -105 -286l129 -140l-86 -73l-122 139q-109 -76 -248 -76q-148 0 -248 84l-162 -143zM324 600q0 -125 76 -205 t194 -80q131 0 223 96t92 238q0 125 -76 205t-194 80q-131 0 -223 -96t-92 -238z" />
<glyph unicode="&#xa5;" horiz-adv-x="1011" d="M96 252l19 100h303l20 127h-301l17 101h270l-262 637h131l225 -586l430 586h144l-488 -637h270l-16 -101h-305l-21 -127h304l-19 -100h-303l-43 -252h-115l43 252h-303z" />
<glyph unicode="&#xa6;" horiz-adv-x="526" d="M96 -283l123 699h109l-123 -699h-109zM268 694l123 699h109l-123 -699h-109z" />
<glyph unicode="&#xa7;" horiz-adv-x="880" d="M86 522q0 100 75.5 177.5t184.5 99.5q-86 86 -86 194q0 106 80.5 175t210.5 69q74 0 141 -24t109 -64l-21 -115q-102 99 -229 99q-84 0 -129 -37.5t-45 -102.5q0 -58 47.5 -105.5t130.5 -94.5q63 -36 102 -63t79 -66t58.5 -85.5t18.5 -103.5q0 -101 -76 -178t-186 -100 q86 -83 86 -193q0 -106 -80.5 -175t-210.5 -69q-74 0 -141 24t-109 64l21 115q101 -98 229 -98q84 0 129 37t45 102q0 102 -176 201q-50 29 -82.5 50t-69 51.5t-57.5 60t-35 69.5t-14 86zM205 528q0 -72 46.5 -119t168.5 -118l35 -21q103 4 171 62.5t68 138.5 q0 70 -47 117.5t-168 118.5l-35 20q-103 -4 -171 -62.5t-68 -136.5z" />
<glyph unicode="&#xa8;" horiz-adv-x="1024" d="M258 1171q0 38 27.5 65.5t64.5 27.5q38 0 65 -27.5t27 -65.5q0 -37 -27 -64.5t-65 -27.5q-37 0 -64.5 27.5t-27.5 64.5zM582 1171q0 38 27.5 65.5t64.5 27.5q38 0 65 -27.5t27 -65.5q0 -37 -27 -64.5t-65 -27.5q-37 0 -64.5 27.5t-27.5 64.5z" />
<glyph unicode="&#xa9;" horiz-adv-x="1429" d="M127 563q0 186 87 340.5t240 244t337 89.5q169 0 303 -76.5t208 -209.5t74 -298q0 -186 -87 -340.5t-239.5 -243.5t-336.5 -89q-127 0 -236.5 44.5t-186 122t-120 185.5t-43.5 231zM211 563q0 -224 140.5 -366t361.5 -142q163 0 295.5 76.5t208 213.5t75.5 308 q0 224 -140 366t-361 142q-163 0 -295.5 -76.5t-208.5 -213.5t-76 -308zM397 582q0 180 115 293.5t295 113.5q138 0 229 -78l-20 -120q-91 94 -215 94q-133 0 -210 -86.5t-77 -216.5q0 -113 64.5 -181.5t169.5 -68.5q133 0 231 76l-21 -127q-83 -56 -217 -56q-156 0 -250 95 t-94 262z" />
<glyph unicode="&#xaa;" horiz-adv-x="669" d="M92 709q0 114 96.5 169.5t251.5 55.5h115l6 41q6 41 6 63q0 48 -33.5 75.5t-93.5 27.5q-107 0 -229 -66l18 109q92 53 220 53q109 0 170 -48.5t61 -135.5q0 -31 -8 -80l-80 -445q-98 -26 -205 -26q-136 0 -215.5 51.5t-79.5 155.5zM203 715q0 -62 51 -92.5t137 -30.5 q48 0 103 10l43 242h-97q-104 0 -170.5 -30.5t-66.5 -98.5z" />
<glyph unicode="&#xab;" horiz-adv-x="917" d="M133 438l297 326h137l-299 -330l187 -317h-127zM416 438l297 326h137l-299 -330l186 -317h-127z" />
<glyph unicode="&#xad;" horiz-adv-x="727" d="M156 475l20 111h440l-20 -111h-440z" />
<glyph unicode="&#xae;" horiz-adv-x="931" d="M135 821q0 175 119 295.5t295 120.5q160 0 262 -103t102 -257q0 -176 -118.5 -296t-294.5 -120q-160 0 -262.5 103t-102.5 257zM217 821q0 -124 79 -206.5t204 -82.5q141 0 236 99.5t95 245.5q0 124 -78.5 206t-203.5 82q-141 0 -236.5 -99t-95.5 -245zM362 666l66 372 q67 13 109 13q70 0 109.5 -32t39.5 -91q0 -49 -26 -82t-62 -47l78 -133h-94l-68 118h-41l-20 -118h-91zM487 862h29q76 0 76 58q0 49 -55 49q-17 0 -33 -4z" />
<glyph unicode="&#xaf;" horiz-adv-x="1024" d="M285 1100l18 102h436l-18 -102h-436z" />
<glyph unicode="&#xb0;" horiz-adv-x="585" d="M129 981q0 107 72.5 179.5t181.5 72.5q100 0 162.5 -62t62.5 -157q0 -107 -72.5 -179.5t-181.5 -72.5q-100 0 -162.5 62t-62.5 157zM225 981q0 -56 34.5 -93.5t94.5 -37.5q72 0 115 46t43 118q0 56 -34.5 93.5t-94.5 37.5q-72 0 -115 -46t-43 -118z" />
<glyph unicode="&#xb1;" horiz-adv-x="940" d="M33 197l20 108h776l-20 -108h-776zM113 647l20 109h334l43 252h108l-43 -252h334l-20 -109h-334l-43 -252h-109l43 252h-333z" />
<glyph unicode="&#xb2;" horiz-adv-x="528" d="M57 539l17 90q63 44 98 69t87.5 65.5t81.5 69.5t59 64.5t43.5 69.5t13.5 67q0 42 -25 66t-70 24q-94 0 -198 -84l20 115q89 72 207 72q91 0 139 -44.5t48 -127.5q0 -58 -27.5 -115t-79.5 -109.5t-110.5 -97.5t-135.5 -94h297l-18 -100h-447z" />
<glyph unicode="&#xb3;" horiz-adv-x="497" d="M63 586l19 100q76 -65 164 -65q62 0 100.5 29.5t38.5 80.5q0 94 -152 105l15 86q82 6 129 39.5t47 91.5q0 35 -22 55t-64 20q-84 0 -178 -71l18 106q73 64 184 64q87 0 133 -42.5t46 -115.5q0 -75 -48.5 -124.5t-121.5 -63.5q57 -14 92 -53.5t35 -96.5q0 -93 -69.5 -149 t-178.5 -56q-120 0 -187 60z" />
<glyph unicode="&#xb4;" horiz-adv-x="1024" d="M334 1051l219 311h137l-229 -311h-127z" />
<glyph unicode="&#xb5;" horiz-adv-x="980" d="M-14 -369l223 1262h121l-101 -578q-6 -34 -6 -55q0 -94 63 -135t185 -41q110 0 201 22l137 787h121l-154 -873q-174 -40 -305 -40q-101 0 -172.5 19.5t-112.5 72.5l-77 -441h-123z" />
<glyph unicode="&#xb6;" horiz-adv-x="1015" d="M137 850q0 92 39 164t106.5 115.5t152 65.5t181.5 22h121l-252 -1434h-120l133 762q-92 3 -172 36.5t-134.5 103.5t-54.5 165zM631 -217l252 1434h121l-252 -1434h-121z" />
<glyph unicode="&#xb7;" horiz-adv-x="489" d="M170 530q0 41 29.5 71t70.5 30t72 -30t31 -71t-31 -71.5t-72 -30.5t-70.5 30.5t-29.5 71.5z" />
<glyph unicode="&#xb8;" horiz-adv-x="1024" d="M358 -299q81 74 134.5 161t60.5 171h111q-7 -95 -61 -190.5t-120 -141.5h-125z" />
<glyph unicode="&#xb9;" horiz-adv-x="393" d="M147 1081l21 105l252 41l-121 -688h-113l101 563z" />
<glyph unicode="&#xba;" horiz-adv-x="831" d="M133 834q0 167 105.5 283t277.5 116q147 0 236.5 -91t89.5 -241q0 -167 -105.5 -283t-277.5 -116q-147 0 -236.5 91t-89.5 241zM248 834q0 -102 58 -168t153 -66q119 0 193.5 84t74.5 217q0 102 -58 168t-153 66q-119 0 -193.5 -84t-74.5 -217z" />
<glyph unicode="&#xbb;" horiz-adv-x="917" d="M84 117l299 329l-186 318h127l194 -322l-297 -325h-137zM367 117l299 329l-187 318h127l195 -322l-297 -325h-137z" />
<glyph unicode="&#xbc;" horiz-adv-x="1370" d="M123 0l903 1217h123l-903 -1217h-123zM168 1081l20 105l252 41l-121 -688h-112l100 563zM674 174l16 92l393 412h115l-74 -414h113l-16 -90h-113l-31 -174h-106l30 174h-327zM799 264h219l49 285z" />
<glyph unicode="&#xbd;" horiz-adv-x="1390" d="M123 0l903 1217h123l-903 -1217h-123zM168 1081l20 105l252 41l-121 -688h-112l100 563zM758 0l16 90q53 37 84 59t77 57t73 59t59 56.5t49 59t29 56.5t12 59q0 42 -24.5 66t-69.5 24q-95 0 -199 -84l21 114q89 72 207 72q91 0 138.5 -44.5t47.5 -127.5 q0 -110 -94.5 -211.5t-257.5 -204.5h297l-19 -100h-446z" />
<glyph unicode="&#xbe;" horiz-adv-x="1492" d="M102 586l19 100q76 -65 164 -65q62 0 100.5 29.5t38.5 80.5q0 94 -152 105l15 86q82 6 129 39.5t47 91.5q0 35 -22 55t-64 20q-84 0 -178 -71l18 106q73 64 184 64q87 0 133 -42.5t46 -115.5q0 -75 -48.5 -124.5t-121.5 -63.5q57 -14 92 -53.5t35 -96.5q0 -93 -69.5 -149 t-178.5 -56q-120 0 -187 60zM246 0l903 1217h123l-903 -1217h-123zM797 174l16 92l393 412h115l-74 -414h113l-17 -90h-112l-31 -174h-106l30 174h-327zM922 264h219l49 285z" />
<glyph unicode="&#xbf;" horiz-adv-x="825" d="M37 -43q0 73 24.5 135t62.5 105t96 80.5t113.5 61t125.5 46.5l28 164h121l-43 -232q-74 -23 -125.5 -43.5t-108 -52t-90.5 -66.5t-56.5 -86t-22.5 -112q0 -84 56 -135t147 -51q171 0 329 155l-26 -149q-129 -119 -310 -119q-154 0 -237.5 80.5t-83.5 218.5zM477 811 q0 41 31 71.5t72 30.5t70.5 -30.5t29.5 -71.5t-29.5 -70.5t-70.5 -29.5q-42 0 -72.5 29.5t-30.5 70.5z" />
<glyph unicode="&#xc0;" horiz-adv-x="1150" d="M-41 0l688 1217h166l256 -1217h-129l-70 336h-589l-189 -336h-133zM340 442h510l-135 670zM580 1593h118l93 -268h-109z" />
<glyph unicode="&#xc1;" horiz-adv-x="1150" d="M-41 0l688 1217h166l256 -1217h-129l-70 336h-589l-189 -336h-133zM340 442h510l-135 670zM680 1325l188 268h138l-199 -268h-127z" />
<glyph unicode="&#xc2;" horiz-adv-x="1150" d="M-41 0l688 1217h166l256 -1217h-129l-70 336h-589l-189 -336h-133zM340 442h510l-135 670zM465 1313l283 272h69l184 -272h-124l-109 160l-166 -160h-137z" />
<glyph unicode="&#xc3;" horiz-adv-x="1150" d="M-41 0l688 1217h166l256 -1217h-129l-70 336h-589l-189 -336h-133zM340 442h510l-135 670zM459 1313q20 115 71.5 177t126.5 62q34 0 68.5 -21.5t57.5 -48t50.5 -48t49.5 -21.5q32 0 57 35.5t35 99.5h96q-20 -116 -71 -177.5t-126 -61.5q-28 0 -55.5 14.5t-49 35 t-41 40.5t-40 34.5t-39.5 14.5q-32 0 -57 -35t-37 -100h-96z" />
<glyph unicode="&#xc4;" horiz-adv-x="1150" d="M-41 0l688 1217h166l256 -1217h-129l-70 336h-589l-189 -336h-133zM340 442h510l-135 670zM498 1405q0 38 27.5 65t64.5 27q38 0 65 -27t27 -65q0 -37 -27 -64.5t-65 -27.5q-37 0 -64.5 27.5t-27.5 64.5zM821 1405q0 38 27.5 65t64.5 27q38 0 65.5 -27t27.5 -65 q0 -37 -27.5 -64.5t-65.5 -27.5q-37 0 -64.5 27.5t-27.5 64.5z" />
<glyph unicode="&#xc5;" horiz-adv-x="1150" d="M-41 0l688 1217h166l256 -1217h-129l-70 336h-589l-189 -336h-133zM340 442h510l-135 670zM600 1458q0 77 53 126.5t131 49.5q74 0 118 -45t44 -114q0 -77 -53 -127t-131 -50q-72 0 -117 45.5t-45 114.5zM682 1458q0 -34 22 -58t62 -24q43 0 70.5 26.5t27.5 72.5 q0 33 -22 57t-62 24q-43 0 -70.5 -26t-27.5 -72z" />
<glyph unicode="&#xc6;" horiz-adv-x="1699" d="M-41 0l1006 1217h774l-19 -111h-571l-76 -430h535l-21 -113h-534l-80 -452h579l-18 -111h-705l60 336h-508l-277 -336h-145zM469 442h438l119 674z" />
<glyph unicode="&#xc7;" horiz-adv-x="1167" d="M131 543q0 156 50.5 286.5t140 219.5t213.5 138.5t268 49.5q112 0 210.5 -34t168.5 -93l-25 -139q-71 74 -163 112.5t-191 38.5q-253 0 -399 -161t-146 -418q0 -210 123.5 -329.5t314.5 -119.5q220 0 383 127l-26 -149q-65 -42 -158.5 -66t-192.5 -26q-18 -84 -67 -162 t-105 -117h-124q149 136 186 285q-212 31 -336.5 178.5t-124.5 378.5z" />
<glyph unicode="&#xc8;" horiz-adv-x="983" d="M113 0l213 1217h696l-18 -111h-572l-76 -430h535l-21 -113h-534l-80 -452h580l-19 -111h-704zM543 1593h119l92 -268h-109z" />
<glyph unicode="&#xc9;" horiz-adv-x="983" d="M113 0l213 1217h696l-18 -111h-572l-76 -430h535l-21 -113h-534l-80 -452h580l-19 -111h-704zM645 1325l189 268h137l-199 -268h-127z" />
<glyph unicode="&#xca;" horiz-adv-x="983" d="M113 0l213 1217h696l-18 -111h-572l-76 -430h535l-21 -113h-534l-80 -452h580l-19 -111h-704zM430 1313l283 272h69l185 -272h-125l-109 160l-166 -160h-137z" />
<glyph unicode="&#xcb;" horiz-adv-x="983" d="M113 0l213 1217h696l-18 -111h-572l-76 -430h535l-21 -113h-534l-80 -452h580l-19 -111h-704zM471 1405q0 38 27.5 65t64.5 27q38 0 65 -27t27 -65q0 -37 -27 -64.5t-65 -27.5q-37 0 -64.5 27.5t-27.5 64.5zM795 1405q0 38 27.5 65t64.5 27q38 0 65 -27t27 -65 q0 -37 -27 -64.5t-65 -27.5q-37 0 -64.5 27.5t-27.5 64.5z" />
<glyph unicode="&#xcc;" horiz-adv-x="475" d="M113 0l213 1217h125l-213 -1217h-125zM240 1593h118l93 -268h-109z" />
<glyph unicode="&#xcd;" horiz-adv-x="475" d="M113 0l213 1217h125l-213 -1217h-125zM342 1325l188 268h138l-199 -268h-127z" />
<glyph unicode="&#xce;" horiz-adv-x="475" d="M113 0l213 1217h125l-213 -1217h-125zM127 1313l283 272h69l185 -272h-125l-109 160l-166 -160h-137z" />
<glyph unicode="&#xcf;" horiz-adv-x="475" d="M113 0l213 1217h125l-213 -1217h-125zM168 1405q0 38 27.5 65t64.5 27q38 0 65 -27t27 -65q0 -37 -27 -64.5t-65 -27.5q-37 0 -64.5 27.5t-27.5 64.5zM492 1405q0 38 27.5 65t64.5 27q38 0 65 -27t27 -65q0 -37 -27 -64.5t-65 -27.5q-37 0 -64.5 27.5t-27.5 64.5z" />
<glyph unicode="&#xd0;" horiz-adv-x="1275" d="M102 565l19 111h123l96 545q125 16 248 16q187 0 328 -60t224 -186.5t83 -308.5q0 -145 -41.5 -263t-114 -199t-172.5 -135.5t-215 -79.5t-244 -25q-198 0 -307 40l96 545h-123zM268 109q70 -19 168 -19q115 0 213 20.5t181 66t141.5 113.5t91.5 168t33 224 q0 212 -140 328t-368 116q-68 0 -142 -6l-77 -444h272l-18 -111h-275z" />
<glyph unicode="&#xd1;" horiz-adv-x="1323" d="M113 0l213 1217h129l540 -1047l183 1047h120l-213 -1217h-122l-545 1047l-185 -1047h-120zM545 1313q20 115 71.5 177t126.5 62q34 0 68.5 -21.5t57.5 -48t50.5 -48t49.5 -21.5q32 0 57 35.5t35 99.5h96q-20 -116 -70.5 -177.5t-125.5 -61.5q-34 0 -68.5 21.5t-57.5 48 t-50.5 48t-49.5 21.5q-32 0 -57 -35t-37 -100h-96z" />
<glyph unicode="&#xd2;" horiz-adv-x="1394" d="M131 543q0 190 78.5 347t229 252t345.5 95q252 0 404.5 -154.5t152.5 -408.5q0 -190 -78.5 -347t-229 -252t-345.5 -95q-252 0 -404.5 154.5t-152.5 408.5zM258 543q0 -199 116 -324t314 -125q157 0 278 76.5t184.5 208t63.5 295.5q0 198 -116 323t-314 125 q-158 0 -278.5 -76.5t-184 -207.5t-63.5 -295zM674 1593h119l92 -268h-109z" />
<glyph unicode="&#xd3;" horiz-adv-x="1394" d="M131 543q0 190 78.5 347t229 252t345.5 95q252 0 404.5 -154.5t152.5 -408.5q0 -190 -78.5 -347t-229 -252t-345.5 -95q-252 0 -404.5 154.5t-152.5 408.5zM258 543q0 -199 116 -324t314 -125q157 0 278 76.5t184.5 208t63.5 295.5q0 198 -116 323t-314 125 q-158 0 -278.5 -76.5t-184 -207.5t-63.5 -295zM776 1325l189 268h137l-199 -268h-127z" />
<glyph unicode="&#xd4;" horiz-adv-x="1394" d="M131 543q0 190 78.5 347t229 252t345.5 95q252 0 404.5 -154.5t152.5 -408.5q0 -190 -78.5 -347t-229 -252t-345.5 -95q-252 0 -404.5 154.5t-152.5 408.5zM258 543q0 -199 116 -324t314 -125q157 0 278 76.5t184.5 208t63.5 295.5q0 198 -116 323t-314 125 q-158 0 -278.5 -76.5t-184 -207.5t-63.5 -295zM561 1313l283 272h69l185 -272h-125l-109 160l-166 -160h-137z" />
<glyph unicode="&#xd5;" horiz-adv-x="1394" d="M131 543q0 190 78.5 347t229 252t345.5 95q252 0 404.5 -154.5t152.5 -408.5q0 -190 -78.5 -347t-229 -252t-345.5 -95q-252 0 -404.5 154.5t-152.5 408.5zM258 543q0 -199 116 -324t314 -125q157 0 278 76.5t184.5 208t63.5 295.5q0 198 -116 323t-314 125 q-158 0 -278.5 -76.5t-184 -207.5t-63.5 -295zM555 1313q20 115 72 177t127 62q28 0 55.5 -14.5t49 -35t41 -40.5t40 -34.5t39.5 -14.5q32 0 57 35.5t35 99.5h96q-20 -116 -70.5 -177.5t-125.5 -61.5q-34 0 -68.5 21.5t-57.5 48t-50.5 48t-49.5 21.5q-32 0 -57 -35t-37 -100 h-96z" />
<glyph unicode="&#xd6;" horiz-adv-x="1394" d="M131 543q0 190 78.5 347t229 252t345.5 95q252 0 404.5 -154.5t152.5 -408.5q0 -190 -78.5 -347t-229 -252t-345.5 -95q-252 0 -404.5 154.5t-152.5 408.5zM258 543q0 -199 116 -324t314 -125q157 0 278 76.5t184.5 208t63.5 295.5q0 198 -116 323t-314 125 q-158 0 -278.5 -76.5t-184 -207.5t-63.5 -295zM602 1405q0 38 27.5 65t64.5 27q38 0 65 -27t27 -65q0 -37 -27 -64.5t-65 -27.5q-37 0 -64.5 27.5t-27.5 64.5zM926 1405q0 38 27.5 65t64.5 27q38 0 65 -27t27 -65q0 -37 -27 -64.5t-65 -27.5q-37 0 -64.5 27.5t-27.5 64.5z " />
<glyph unicode="&#xd7;" horiz-adv-x="804" d="M66 352l286 244l-200 244l86 73l198 -245l287 245l63 -77l-286 -244l200 -244l-84 -72l-200 242l-285 -242z" />
<glyph unicode="&#xd8;" horiz-adv-x="1415" d="M121 0l147 162q-127 149 -127 381q0 142 46.5 268.5t129.5 221t207 149.5t271 55q212 0 356 -113l86 93h135l-149 -162q129 -151 129 -381q0 -142 -46.5 -268.5t-129.5 -221t-207 -149.5t-271 -55q-215 0 -358 112l-86 -92h-133zM268 543q0 -174 86 -289l715 780 q-115 88 -274 88q-158 0 -278.5 -76.5t-184.5 -207.5t-64 -295zM422 182q115 -88 276 -88q157 0 278 76.5t185 208t64 295.5q0 168 -86 287z" />
<glyph unicode="&#xd9;" horiz-adv-x="1214" d="M133 307q0 57 10 113l140 797h125l-140 -797q-8 -44 -8 -101q0 -66 25.5 -112t73.5 -71t106 -35.5t133 -10.5q144 0 274 37l193 1090h125l-207 -1176q-193 -61 -385 -61q-465 0 -465 327zM590 1593h119l92 -268h-109z" />
<glyph unicode="&#xda;" horiz-adv-x="1214" d="M133 307q0 57 10 113l140 797h125l-140 -797q-8 -44 -8 -101q0 -66 25.5 -112t73.5 -71t106 -35.5t133 -10.5q144 0 274 37l193 1090h125l-207 -1176q-193 -61 -385 -61q-465 0 -465 327zM690 1325l189 268h137l-199 -268h-127z" />
<glyph unicode="&#xdb;" horiz-adv-x="1214" d="M133 307q0 57 10 113l140 797h125l-140 -797q-8 -44 -8 -101q0 -66 25.5 -112t73.5 -71t106 -35.5t133 -10.5q144 0 274 37l193 1090h125l-207 -1176q-193 -61 -385 -61q-465 0 -465 327zM477 1313l283 272h69l185 -272h-125l-109 160l-166 -160h-137z" />
<glyph unicode="&#xdc;" horiz-adv-x="1214" d="M133 307q0 57 10 113l140 797h125l-140 -797q-8 -44 -8 -101q0 -66 25.5 -112t73.5 -71t106 -35.5t133 -10.5q144 0 274 37l193 1090h125l-207 -1176q-193 -61 -385 -61q-465 0 -465 327zM516 1405q0 38 27.5 65t64.5 27q38 0 65 -27t27 -65q0 -37 -27 -64.5t-65 -27.5 q-37 0 -64.5 27.5t-27.5 64.5zM840 1405q0 38 27.5 65t64.5 27q38 0 65 -27t27 -65q0 -37 -27 -64.5t-65 -27.5q-37 0 -64.5 27.5t-27.5 64.5z" />
<glyph unicode="&#xdd;" horiz-adv-x="1054" d="M170 1217h135l258 -617l475 617h144l-572 -732l-84 -485h-127l86 485zM629 1325l188 268h137l-198 -268h-127z" />
<glyph unicode="&#xde;" horiz-adv-x="931" d="M113 0l215 1217h125l-37 -207q46 4 71 4q211 0 324 -97t113 -270q0 -109 -40.5 -191.5t-111.5 -131.5t-160.5 -73t-195.5 -24q-74 0 -137 11l-41 -238h-125zM297 340q37 -6 119 -6q83 0 150.5 17.5t119.5 53.5t80.5 97.5t28.5 144.5q0 121 -85 189.5t-223 68.5 q-32 0 -90 -4z" />
<glyph unicode="&#xdf;" horiz-adv-x="1058" d="M80 0l184 1053q29 170 127 265t246 95q146 0 226.5 -78t80.5 -194q0 -57 -24.5 -106.5t-60 -84.5t-70.5 -67t-59.5 -67.5t-24.5 -72.5q0 -41 27.5 -80.5t67 -75t79 -75t67 -95.5t27.5 -120q0 -144 -97 -230.5t-237 -86.5q-87 0 -154 31.5t-102 76.5l20 121 q109 -129 236 -129q101 0 158 58.5t57 158.5q0 50 -28 95t-67.5 81.5t-79 73.5t-67.5 87.5t-28 108.5q0 48 25 92.5t60.5 79t71.5 68t61 74.5t25 84q0 74 -51.5 122t-138.5 48q-100 0 -165 -68t-89 -205l-180 -1038h-123z" />
<glyph unicode="&#xe0;" d="M61 246q0 73 34.5 126.5t97 84t138.5 45t169 14.5h143l19 109q4 28 4 53q0 60 -43 94.5t-119 34.5q-138 0 -289 -82l21 121q54 31 129 49t147 18q124 0 199 -55.5t75 -161.5q0 -30 -6 -71l-106 -609q-120 -32 -240 -32q-171 0 -272 65t-101 197zM182 246 q0 -83 68.5 -123.5t183.5 -40.5q65 0 133 12l58 322h-125q-55 0 -98.5 -4t-86 -15t-71 -29.5t-45.5 -49t-17 -72.5zM381 1362h119l108 -311h-108z" />
<glyph unicode="&#xe1;" d="M61 246q0 73 34.5 126.5t97 84t138.5 45t169 14.5h143l19 109q4 28 4 53q0 60 -43 94.5t-119 34.5q-138 0 -289 -82l21 121q54 31 129 49t147 18q124 0 199 -55.5t75 -161.5q0 -30 -6 -71l-106 -609q-120 -32 -240 -32q-171 0 -272 65t-101 197zM182 246 q0 -83 68.5 -123.5t183.5 -40.5q65 0 133 12l58 322h-125q-55 0 -98.5 -4t-86 -15t-71 -29.5t-45.5 -49t-17 -72.5zM487 1051l220 311h137l-230 -311h-127z" />
<glyph unicode="&#xe2;" d="M61 246q0 73 34.5 126.5t97 84t138.5 45t169 14.5h143l19 109q4 28 4 53q0 60 -43 94.5t-119 34.5q-138 0 -289 -82l21 121q54 31 129 49t147 18q124 0 199 -55.5t75 -161.5q0 -30 -6 -71l-106 -609q-120 -32 -240 -32q-171 0 -272 65t-101 197zM182 246 q0 -83 68.5 -123.5t183.5 -40.5q65 0 133 12l58 322h-125q-55 0 -98.5 -4t-86 -15t-71 -29.5t-45.5 -49t-17 -72.5zM276 1051l285 290h70l182 -290h-125l-106 178l-168 -178h-138z" />
<glyph unicode="&#xe3;" d="M61 246q0 73 34.5 126.5t97 84t138.5 45t169 14.5h143l19 109q4 28 4 53q0 60 -43 94.5t-119 34.5q-138 0 -289 -82l21 121q54 31 129 49t147 18q124 0 199 -55.5t75 -161.5q0 -30 -6 -71l-106 -609q-120 -32 -240 -32q-171 0 -272 65t-101 197zM182 246 q0 -83 68.5 -123.5t183.5 -40.5q65 0 133 12l58 322h-125q-55 0 -98.5 -4t-86 -15t-71 -29.5t-45.5 -49t-17 -72.5zM266 1051q20 115 72 177t127 62q28 0 55.5 -14.5t49 -35t41 -40.5t40 -34.5t39.5 -14.5q32 0 57 35.5t35 99.5h97q-20 -116 -71 -177.5t-126 -61.5 q-28 0 -55.5 14.5t-49 35t-41 40.5t-40 34.5t-39.5 14.5q-32 0 -57.5 -35.5t-37.5 -99.5h-96z" />
<glyph unicode="&#xe4;" d="M61 246q0 73 34.5 126.5t97 84t138.5 45t169 14.5h143l19 109q4 28 4 53q0 60 -43 94.5t-119 34.5q-138 0 -289 -82l21 121q54 31 129 49t147 18q124 0 199 -55.5t75 -161.5q0 -30 -6 -71l-106 -609q-120 -32 -240 -32q-171 0 -272 65t-101 197zM182 246 q0 -83 68.5 -123.5t183.5 -40.5q65 0 133 12l58 322h-125q-55 0 -98.5 -4t-86 -15t-71 -29.5t-45.5 -49t-17 -72.5zM319 1171q0 38 28 65.5t65 27.5q38 0 65 -27.5t27 -65.5q0 -37 -27 -64.5t-65 -27.5q-37 0 -65 27.5t-28 64.5zM643 1171q0 38 27.5 65.5t64.5 27.5 q38 0 65 -27.5t27 -65.5q0 -37 -27 -64.5t-65 -27.5q-37 0 -64.5 27.5t-27.5 64.5z" />
<glyph unicode="&#xe5;" d="M61 246q0 73 34.5 126.5t97 84t138.5 45t169 14.5h143l19 109q4 28 4 53q0 60 -43 94.5t-119 34.5q-138 0 -289 -82l21 121q54 31 129 49t147 18q124 0 199 -55.5t75 -161.5q0 -30 -6 -71l-106 -609q-120 -32 -240 -32q-171 0 -272 65t-101 197zM182 246 q0 -83 68.5 -123.5t183.5 -40.5q65 0 133 12l58 322h-125q-55 0 -98.5 -4t-86 -15t-71 -29.5t-45.5 -49t-17 -72.5zM412 1178q0 77 53 126.5t131 49.5q73 0 117.5 -45.5t44.5 -114.5q0 -77 -53.5 -126.5t-131.5 -49.5q-72 0 -116.5 45.5t-44.5 114.5zM494 1178q0 -34 22 -58 t62 -24q43 0 70.5 26t27.5 72q0 34 -22 58t-62 24q-43 0 -70.5 -26t-27.5 -72z" />
<glyph unicode="&#xe6;" horiz-adv-x="1495" d="M61 240q0 75 32 130t90 86t128.5 45.5t157.5 14.5h168q8 47 33 107q-3 78 -52 131t-129 53q-137 0 -282 -82l20 121q53 30 127.5 48.5t141.5 18.5q95 0 161.5 -40.5t92.5 -114.5q129 155 323 155q79 0 141.5 -22.5t101 -59t64 -86.5t35.5 -100.5t10 -105.5 q0 -80 -18 -125h-664v-19q0 -141 80.5 -226t210.5 -85q88 0 158 20.5t158 77.5l-25 -127q-116 -75 -291 -75q-214 0 -327 149q-136 -145 -336 -145q-132 0 -221 66.5t-89 189.5zM182 240q0 -72 56.5 -115t132.5 -43q88 0 162 35t124 98q-32 74 -32 180v19h-162 q-50 0 -87.5 -3.5t-75.5 -14.5t-62.5 -29.5t-40 -50.5t-15.5 -76zM754 516h546q3 18 3 33q0 67 -22 124t-75.5 97.5t-132.5 40.5q-115 0 -203 -76t-116 -219z" />
<glyph unicode="&#xe7;" horiz-adv-x="905" d="M88 389q0 102 27 189t73.5 148t108.5 103.5t132 63t144 20.5q185 0 295 -98l-24 -127q-117 117 -271 117q-73 0 -136.5 -25t-114.5 -74t-80 -130.5t-29 -186.5q0 -127 78 -214t217 -87q82 0 149 18.5t148 75.5l-25 -135q-97 -63 -260 -67q-18 -84 -67 -162t-105 -117 h-125q69 63 120 138t69 149q-151 29 -237.5 138t-86.5 263z" />
<glyph unicode="&#xe8;" horiz-adv-x="978" d="M88 395q0 220 132 369t341 149q95 0 165 -29.5t108.5 -80.5t56.5 -110.5t18 -127.5q0 -80 -18 -125h-680q-2 -16 -2 -45q0 -143 82 -227t221 -84q88 0 157.5 20.5t157.5 77.5l-24 -127q-116 -75 -291 -75q-195 0 -309.5 116t-114.5 299zM227 543h559q2 14 2 30 q0 104 -58.5 171t-170.5 67q-119 0 -207 -71.5t-125 -196.5zM432 1362h119l108 -311h-108z" />
<glyph unicode="&#xe9;" horiz-adv-x="978" d="M88 395q0 220 132 369t341 149q95 0 165 -29.5t108.5 -80.5t56.5 -110.5t18 -127.5q0 -80 -18 -125h-680q-2 -16 -2 -45q0 -143 82 -227t221 -84q88 0 157.5 20.5t157.5 77.5l-24 -127q-116 -75 -291 -75q-195 0 -309.5 116t-114.5 299zM227 543h559q2 14 2 30 q0 104 -58.5 171t-170.5 67q-119 0 -207 -71.5t-125 -196.5zM541 1051l219 311h137l-229 -311h-127z" />
<glyph unicode="&#xea;" horiz-adv-x="978" d="M88 395q0 220 132 369t341 149q95 0 165 -29.5t108.5 -80.5t56.5 -110.5t18 -127.5q0 -80 -18 -125h-680q-2 -16 -2 -45q0 -143 82 -227t221 -84q88 0 157.5 20.5t157.5 77.5l-24 -127q-116 -75 -291 -75q-195 0 -309.5 116t-114.5 299zM227 543h559q2 14 2 30 q0 104 -58.5 171t-170.5 67q-119 0 -207 -71.5t-125 -196.5zM338 1051l285 290h69l182 -290h-124l-107 178l-168 -178h-137z" />
<glyph unicode="&#xeb;" horiz-adv-x="978" d="M88 395q0 220 132 369t341 149q95 0 165 -29.5t108.5 -80.5t56.5 -110.5t18 -127.5q0 -80 -18 -125h-680q-2 -16 -2 -45q0 -143 82 -227t221 -84q88 0 157.5 20.5t157.5 77.5l-24 -127q-116 -75 -291 -75q-195 0 -309.5 116t-114.5 299zM227 543h559q2 14 2 30 q0 104 -58.5 171t-170.5 67q-119 0 -207 -71.5t-125 -196.5zM367 1171q0 38 27.5 65.5t64.5 27.5q38 0 65 -27.5t27 -65.5q0 -37 -27 -64.5t-65 -27.5q-37 0 -64.5 27.5t-27.5 64.5zM690 1171q0 38 27.5 65.5t64.5 27.5q38 0 65 -27.5t27 -65.5q0 -37 -27 -64.5t-65 -27.5 q-37 0 -64.5 27.5t-27.5 64.5z" />
<glyph unicode="&#xec;" horiz-adv-x="430" d="M80 0l158 893h120l-157 -893h-121zM145 1362h119l109 -311h-109z" />
<glyph unicode="&#xed;" horiz-adv-x="430" d="M80 0l158 893h120l-157 -893h-121zM254 1051l219 311h137l-229 -311h-127z" />
<glyph unicode="&#xee;" horiz-adv-x="430" d="M51 1051l285 290h70l182 -290h-125l-107 178l-168 -178h-137zM80 0l158 893h120l-157 -893h-121z" />
<glyph unicode="&#xef;" horiz-adv-x="430" d="M80 0l158 893h120l-157 -893h-121zM92 1171q0 38 27.5 65.5t64.5 27.5q38 0 65 -27.5t27 -65.5q0 -37 -27 -64.5t-65 -27.5q-37 0 -64.5 27.5t-27.5 64.5zM416 1171q0 38 27.5 65.5t64.5 27.5q38 0 65 -27.5t27 -65.5q0 -37 -27 -64.5t-65 -27.5q-37 0 -64.5 27.5 t-27.5 64.5z" />
<glyph unicode="&#xf0;" horiz-adv-x="1073" d="M88 397q0 142 58 259t170 187t257 70q84 0 156 -35.5t109 -93.5q-48 154 -166 293l-332 -88v96l264 70q-112 119 -280 238h161q133 -93 236 -205l231 61v-96l-166 -45q201 -262 201 -598q0 -230 -132.5 -380t-352.5 -150q-187 0 -300.5 114.5t-113.5 302.5zM213 397 q0 -136 79 -225.5t210 -89.5q160 0 260 116t100 298q0 136 -79 225.5t-210 89.5q-160 0 -260 -116t-100 -298z" />
<glyph unicode="&#xf1;" horiz-adv-x="1038" d="M80 0l147 840q216 73 383 73q151 0 233.5 -58.5t82.5 -178.5q0 -52 -13 -129l-98 -547h-121l99 543q10 51 10 110q0 82 -53 115t-152 33q-109 0 -264 -41l-133 -760h-121zM330 1051q20 115 71.5 177t126.5 62q34 0 68.5 -21.5t57.5 -48t50.5 -48t49.5 -21.5q32 0 57 35.5 t35 99.5h96q-20 -116 -71 -177.5t-126 -61.5q-28 0 -55.5 14.5t-49 35t-41 40.5t-40 34.5t-39.5 14.5q-32 0 -57 -35t-37 -100h-96z" />
<glyph unicode="&#xf2;" horiz-adv-x="1073" d="M88 397q0 142 58 259t170 187t257 70q187 0 300.5 -114.5t113.5 -302.5q0 -142 -58 -259t-170 -187t-257 -70q-187 0 -300.5 114.5t-113.5 302.5zM213 397q0 -136 79 -225.5t210 -89.5q160 0 260 116t100 298q0 136 -79 225.5t-210 89.5q-160 0 -260 -116t-100 -298z M455 1362h118l109 -311h-109z" />
<glyph unicode="&#xf3;" horiz-adv-x="1073" d="M88 397q0 142 58 259t170 187t257 70q187 0 300.5 -114.5t113.5 -302.5q0 -142 -58 -259t-170 -187t-257 -70q-187 0 -300.5 114.5t-113.5 302.5zM213 397q0 -136 79 -225.5t210 -89.5q160 0 260 116t100 298q0 136 -79 225.5t-210 89.5q-160 0 -260 -116t-100 -298z M555 1051l219 311h137l-229 -311h-127z" />
<glyph unicode="&#xf4;" horiz-adv-x="1073" d="M88 397q0 142 58 259t170 187t257 70q187 0 300.5 -114.5t113.5 -302.5q0 -142 -58 -259t-170 -187t-257 -70q-187 0 -300.5 114.5t-113.5 302.5zM213 397q0 -136 79 -225.5t210 -89.5q160 0 260 116t100 298q0 136 -79 225.5t-210 89.5q-160 0 -260 -116t-100 -298z M346 1051l285 290h69l183 -290h-125l-107 178l-168 -178h-137z" />
<glyph unicode="&#xf5;" horiz-adv-x="1073" d="M88 397q0 142 58 259t170 187t257 70q187 0 300.5 -114.5t113.5 -302.5q0 -142 -58 -259t-170 -187t-257 -70q-187 0 -300.5 114.5t-113.5 302.5zM213 397q0 -136 79 -225.5t210 -89.5q160 0 260 116t100 298q0 136 -79 225.5t-210 89.5q-160 0 -260 -116t-100 -298z M330 1051q20 115 71.5 177t126.5 62q34 0 68.5 -21.5t57.5 -48t50.5 -48t49.5 -21.5q32 0 57 35.5t35 99.5h96q-20 -116 -71 -177.5t-126 -61.5q-28 0 -55.5 14.5t-49 35t-41 40.5t-40 34.5t-39.5 14.5q-32 0 -57 -35t-37 -100h-96z" />
<glyph unicode="&#xf6;" horiz-adv-x="1073" d="M88 397q0 142 58 259t170 187t257 70q187 0 300.5 -114.5t113.5 -302.5q0 -142 -58 -259t-170 -187t-257 -70q-187 0 -300.5 114.5t-113.5 302.5zM213 397q0 -136 79 -225.5t210 -89.5q160 0 260 116t100 298q0 136 -79 225.5t-210 89.5q-160 0 -260 -116t-100 -298z M387 1171q0 38 27.5 65.5t64.5 27.5q38 0 65 -27.5t27 -65.5q0 -37 -27 -64.5t-65 -27.5q-37 0 -64.5 27.5t-27.5 64.5zM711 1171q0 38 27.5 65.5t64.5 27.5q38 0 65 -27.5t27 -65.5q0 -37 -27 -64.5t-65 -27.5q-37 0 -64.5 27.5t-27.5 64.5z" />
<glyph unicode="&#xf7;" horiz-adv-x="940" d="M94 545l21 108h776l-21 -108h-776zM338 301q0 41 29.5 70.5t70.5 29.5q42 0 72.5 -29.5t30.5 -70.5t-31 -71.5t-72 -30.5t-70.5 30.5t-29.5 71.5zM442 899q0 41 30 70.5t71 29.5t71.5 -29.5t30.5 -70.5t-30.5 -71.5t-71.5 -30.5t-71 30.5t-30 71.5z" />
<glyph unicode="&#xf8;" horiz-adv-x="1073" d="M27 -20l143 149q-82 108 -82 268q0 142 58 259t170 187t257 70q158 0 267 -86l82 86h127l-146 -151q84 -111 84 -266q0 -142 -58 -259t-170 -187t-257 -70q-160 0 -269 86l-81 -86h-125zM211 397q0 -105 41 -182l512 533q-72 63 -191 63q-161 0 -261.5 -116t-100.5 -298z M309 145q72 -63 193 -63q161 0 261.5 116t100.5 298q0 99 -43 180z" />
<glyph unicode="&#xf9;" horiz-adv-x="980" d="M92 227q0 44 10 105l99 561h121l-101 -578q-6 -34 -6 -55q0 -94 63 -135t185 -41q110 0 201 22l137 787h121l-154 -873q-174 -40 -315 -40q-169 0 -265 61.5t-96 185.5zM414 1362h118l109 -311h-109z" />
<glyph unicode="&#xfa;" horiz-adv-x="980" d="M92 227q0 44 10 105l99 561h121l-101 -578q-6 -34 -6 -55q0 -94 63 -135t185 -41q110 0 201 22l137 787h121l-154 -873q-174 -40 -315 -40q-169 0 -265 61.5t-96 185.5zM522 1051l219 311h138l-230 -311h-127z" />
<glyph unicode="&#xfb;" horiz-adv-x="980" d="M92 227q0 44 10 105l99 561h121l-101 -578q-6 -34 -6 -55q0 -94 63 -135t185 -41q110 0 201 22l137 787h121l-154 -873q-174 -40 -315 -40q-169 0 -265 61.5t-96 185.5zM319 1051l285 290h70l182 -290h-125l-106 178l-168 -178h-138z" />
<glyph unicode="&#xfc;" horiz-adv-x="980" d="M92 227q0 44 10 105l99 561h121l-101 -578q-6 -34 -6 -55q0 -94 63 -135t185 -41q110 0 201 22l137 787h121l-154 -873q-174 -40 -315 -40q-169 0 -265 61.5t-96 185.5zM342 1171q0 38 27.5 65.5t64.5 27.5q38 0 65 -27.5t27 -65.5q0 -37 -27 -64.5t-65 -27.5 q-37 0 -64.5 27.5t-27.5 64.5zM666 1171q0 38 27.5 65.5t64.5 27.5q38 0 65 -27.5t27 -65.5q0 -37 -27 -64.5t-65 -27.5q-37 0 -64.5 27.5t-27.5 64.5z" />
<glyph unicode="&#xfd;" horiz-adv-x="876" d="M90 893h117l153 -815l459 815h129l-729 -1262h-125l185 314zM479 1051l219 311h138l-230 -311h-127z" />
<glyph unicode="&#xfe;" horiz-adv-x="1052" d="M10 -369l312 1762h120l-92 -525q88 45 211 45q183 0 296.5 -113t113.5 -302q0 -109 -36 -203.5t-101.5 -164.5t-165.5 -110t-222 -40q-71 0 -139 18t-104 45l-72 -412h-121zM223 152q94 -68 223 -68q192 0 296 113t104 301q0 130 -81 221.5t-216 91.5q-122 0 -217 -45z " />
<glyph unicode="&#xff;" horiz-adv-x="876" d="M90 893h117l153 -815l459 815h129l-729 -1262h-125l185 314zM317 1171q0 38 28 65.5t65 27.5q38 0 65 -27.5t27 -65.5q0 -37 -27 -64.5t-65 -27.5q-37 0 -65 27.5t-28 64.5zM641 1171q0 38 27.5 65.5t64.5 27.5q38 0 65 -27.5t27 -65.5q0 -37 -27 -64.5t-65 -27.5 q-37 0 -64.5 27.5t-27.5 64.5z" />
<glyph unicode="&#x152;" horiz-adv-x="1654" d="M131 545q0 184 78 336t227.5 244t343.5 92h914l-19 -111h-571l-76 -430h535l-21 -113h-534l-80 -452h579l-18 -111h-803q-252 0 -403.5 149.5t-151.5 395.5zM258 545q0 -193 115 -313.5t313 -120.5h117l176 995h-199q-156 0 -276 -74t-183 -201.5t-63 -285.5z" />
<glyph unicode="&#x153;" horiz-adv-x="1740" d="M88 397q0 142 58 259t170 187t257 70q124 0 221.5 -58.5t145.5 -156.5q62 100 161 157.5t222 57.5q95 0 165 -29.5t108.5 -80.5t56.5 -110.5t18 -127.5q0 -80 -18 -125h-680q-2 -16 -2 -45q0 -143 82 -227t221 -84q88 0 157.5 20.5t157.5 77.5l-24 -127 q-116 -75 -291 -75q-131 0 -227.5 58t-149.5 159q-62 -99 -165.5 -158t-229.5 -59q-187 0 -300.5 114.5t-113.5 302.5zM213 397q0 -136 79 -225.5t210 -89.5q160 0 260 116t100 298q0 136 -79 225.5t-210 89.5q-160 0 -260 -116t-100 -298zM989 543h559q2 14 2 30 q0 104 -58.5 171t-170.5 67q-119 0 -207 -71.5t-125 -196.5z" />
<glyph unicode="&#x178;" horiz-adv-x="1054" d="M170 1217h135l258 -617l475 617h144l-572 -732l-84 -485h-127l86 485zM455 1405q0 38 27.5 65t64.5 27q38 0 65 -27t27 -65q0 -37 -27 -64.5t-65 -27.5q-37 0 -64.5 27.5t-27.5 64.5zM778 1405q0 38 27.5 65t64.5 27q38 0 65.5 -27t27.5 -65q0 -37 -27.5 -64.5 t-65.5 -27.5q-37 0 -64.5 27.5t-27.5 64.5z" />
<glyph unicode="&#x2c6;" horiz-adv-x="1024" d="M244 1051l284 290h70l182 -290h-125l-106 178l-168 -178h-137z" />
<glyph unicode="&#x2dc;" horiz-adv-x="1024" d="M205 1051q20 115 71.5 177t126.5 62q34 0 68.5 -21.5t57.5 -48t50.5 -48t49.5 -21.5q32 0 57 35.5t35 99.5h96q-20 -116 -70.5 -177.5t-125.5 -61.5q-34 0 -68.5 21.5t-57.5 48t-50.5 48t-49.5 21.5q-32 0 -57 -35t-37 -100h-96z" />
<glyph unicode="&#x2000;" horiz-adv-x="817" />
<glyph unicode="&#x2001;" horiz-adv-x="1634" />
<glyph unicode="&#x2002;" horiz-adv-x="817" />
<glyph unicode="&#x2003;" horiz-adv-x="1634" />
<glyph unicode="&#x2004;" horiz-adv-x="544" />
<glyph unicode="&#x2005;" horiz-adv-x="408" />
<glyph unicode="&#x2006;" horiz-adv-x="272" />
<glyph unicode="&#x2007;" horiz-adv-x="272" />
<glyph unicode="&#x2008;" horiz-adv-x="204" />
<glyph unicode="&#x2009;" horiz-adv-x="326" />
<glyph unicode="&#x200a;" horiz-adv-x="90" />
<glyph unicode="&#x2010;" horiz-adv-x="727" d="M156 475l20 111h440l-20 -111h-440z" />
<glyph unicode="&#x2011;" horiz-adv-x="727" d="M156 475l20 111h440l-20 -111h-440z" />
<glyph unicode="&#x2012;" horiz-adv-x="727" d="M156 475l20 111h440l-20 -111h-440z" />
<glyph unicode="&#x2013;" horiz-adv-x="1171" d="M156 481l16 99h885l-17 -99h-884z" />
<glyph unicode="&#x2014;" horiz-adv-x="1949" d="M156 481l16 99h1663l-16 -99h-1663z" />
<glyph unicode="&#x2018;" horiz-adv-x="423" d="M205 936q22 123 94.5 225.5t165.5 157.5h100q-175 -158 -215 -383h-145z" />
<glyph unicode="&#x2019;" horiz-adv-x="423" d="M139 936q175 158 215 383h146q-22 -123 -94.5 -225.5t-165.5 -157.5h-101z" />
<glyph unicode="&#x201a;" horiz-adv-x="423" d="M-80 -219q175 158 215 383h146q-22 -123 -95 -225.5t-166 -157.5h-100z" />
<glyph unicode="&#x201c;" horiz-adv-x="704" d="M205 936q22 123 94.5 225.5t165.5 157.5h100q-175 -158 -215 -383h-145zM485 936q22 123 94.5 225.5t165.5 157.5h101q-175 -158 -215 -383h-146z" />
<glyph unicode="&#x201d;" horiz-adv-x="704" d="M139 936q175 158 215 383h146q-22 -123 -94.5 -225.5t-165.5 -157.5h-101zM420 936q175 158 215 383h145q-22 -123 -94.5 -225.5t-165.5 -157.5h-100z" />
<glyph unicode="&#x201e;" horiz-adv-x="704" d="M-80 -219q175 158 215 383h146q-22 -123 -95 -225.5t-166 -157.5h-100zM201 -219q175 158 215 383h145q-22 -123 -94.5 -225.5t-165.5 -157.5h-100z" />
<glyph unicode="&#x2022;" horiz-adv-x="655" d="M164 530q0 77 54 131t130 54t130 -54t54 -131q0 -76 -54 -130t-130 -54t-130 54t-54 130z" />
<glyph unicode="&#x2026;" horiz-adv-x="1468" d="M96 84q0 41 30 70.5t71 29.5t71.5 -29.5t30.5 -70.5t-30.5 -71.5t-71.5 -30.5t-71 30.5t-30 71.5zM586 84q0 41 29.5 70.5t70.5 29.5t71.5 -29.5t30.5 -70.5t-30.5 -71.5t-71.5 -30.5t-70.5 30.5t-29.5 71.5zM1075 84q0 41 30 70.5t71 29.5t71.5 -29.5t30.5 -70.5 t-30.5 -71.5t-71.5 -30.5t-71 30.5t-30 71.5z" />
<glyph unicode="&#x202f;" horiz-adv-x="326" />
<glyph unicode="&#x2039;" horiz-adv-x="634" d="M133 438l297 326h137l-299 -330l187 -317h-127z" />
<glyph unicode="&#x203a;" horiz-adv-x="634" d="M84 117l299 329l-186 318h127l194 -322l-297 -325h-137z" />
<glyph unicode="&#x205f;" horiz-adv-x="408" />
<glyph unicode="&#x20ac;" horiz-adv-x="1052" d="M49 453l19 102h141q3 71 14 125h-133l19 102h139q63 209 204.5 329t325.5 120q183 0 293 -127l-29 -137q-106 149 -264 149q-141 0 -247.5 -88t-159.5 -246h409l-39 -102h-397q-13 -69 -16 -125h364l-39 -102h-327q7 -171 86 -265t209 -94q175 0 315 125l-29 -147 q-56 -43 -132 -67.5t-154 -24.5q-186 0 -296.5 126t-117.5 347h-158z" />
<glyph unicode="&#x2122;" horiz-adv-x="1388" d="M201 1130l14 87h463l-14 -87h-179l-86 -481h-104l86 481h-180zM618 649l191 568h125l59 -451l215 451h125l-10 -568h-98l10 441l-213 -441h-98l-60 441l-145 -441h-101z" />
<glyph unicode="&#x25fc;" horiz-adv-x="890" d="M0 0v891h891v-891h-891z" />
</font>
</defs>
</svg>
